HIERARCHY
ROOT Hips
{
	OFFSET 0.000000 0.000000 0.000000
	CHANNELS 6 Xposition Yposition Zposition Xrotation Yrotation Zrotation
	JOINT LeftUpLeg_virtual
	{
		OFFSET 0.000000 0.000000 0.000000
		CHANNELS 3 Xrotation Yrotation Zrotation
		JOINT LeftUpLeg
		{
			OFFSET 10.205400 -3.823500 0.155100
			CHANNELS 3 Xrotation Yrotation Zrotation
			JOINT LeftLeg
			{
				OFFSET 0.708757 -12.982077 0.567790
				CHANNELS 3 Xrotation Yrotation Zrotation
				JOINT LeftFoot
				{
					OFFSET -0.708756 -10.717838 -2.184338
					CHANNELS 3 Xrotation Yrotation Zrotation
					JOINT LeftToeBase
					{
						OFFSET 0.108149 -7.191104 7.560241
						CHANNELS 3 Xrotation Yrotation Zrotation
						JOINT LeftToe_End
						{
							OFFSET 0.070230 0.081724 4.490308
							CHANNELS 3 Xrotation Yrotation Zrotation
							End Site
							{
								OFFSET 0 0 0
							}
						}
					}
				}
			}
		}
	}
	JOINT RightUpLeg_virtual
	{
		OFFSET 0.000000 0.000000 0.000000
		CHANNELS 3 Xrotation Yrotation Zrotation
		JOINT RightUpLeg
		{
			OFFSET -10.205400 -3.823500 0.005500
			CHANNELS 3 Xrotation Yrotation Zrotation
			JOINT RightLeg
			{
				OFFSET -0.708756 -12.982134 0.610632
				CHANNELS 3 Xrotation Yrotation Zrotation
				JOINT RightFoot
				{
					OFFSET 0.708754 -10.717769 -1.945823
					CHANNELS 3 Xrotation Yrotation Zrotation
					JOINT RightToeBase
					{
						OFFSET -0.108140 -7.191069 7.372968
						CHANNELS 3 Xrotation Yrotation Zrotation
						JOINT RightToe_End
						{
							OFFSET -0.070227 0.081735 4.479403
							CHANNELS 3 Xrotation Yrotation Zrotation
							End Site
							{
								OFFSET 0 0 0
							}
						}
					}
				}
			}
		}
	}
	JOINT Spine_virtual
	{
		OFFSET 0.000000 0.000000 0.000000
		CHANNELS 3 Xrotation Yrotation Zrotation
		JOINT Spine
		{
			OFFSET 0.000000 6.876099 0.125700
			CHANNELS 3 Xrotation Yrotation Zrotation
			JOINT Spine1
			{
				OFFSET 0.000000 5.730043 0.104720
				CHANNELS 3 Xrotation Yrotation Zrotation
				JOINT Spine1_split
				{
					OFFSET 0.000000 5.730043 0.104720
					CHANNELS 3 Xrotation Yrotation Zrotation
					JOINT Spine2
					{
						OFFSET 0.000000 5.730043 0.104720
						CHANNELS 3 Xrotation Yrotation Zrotation
						JOINT Neck_virtual
						{
							OFFSET 0.000000 0.000000 0.000000
							CHANNELS 3 Xrotation Yrotation Zrotation
							JOINT Neck
							{
								OFFSET 0.000000 10.314075 0.188496
								CHANNELS 3 Xrotation Yrotation Zrotation
								JOINT Head
								{
									OFFSET 0.000000 7.643700 -2.377400
									CHANNELS 3 Xrotation Yrotation Zrotation
									JOINT HeadTop_End
									{
										OFFSET 0.000000 43.788605 -13.619600
										CHANNELS 3 Xrotation Yrotation Zrotation
										End Site
										{
											OFFSET 0 0 0
										}
									}
								}
							}
						}
						JOINT LeftShoulder_virtual
						{
							OFFSET 0.000000 0.000000 0.000000
							CHANNELS 3 Xrotation Yrotation Zrotation
							JOINT LeftShoulder
							{
								OFFSET 2.196100 4.412489 0.087492
								CHANNELS 3 Xrotation Yrotation Zrotation
								JOINT LeftShoulder_split
								{
									OFFSET 2.196100 4.412489 0.087492
									CHANNELS 3 Xrotation Yrotation Zrotation
									JOINT LeftArm
									{
										OFFSET 8.771219 -2.981674 -0.026999
										CHANNELS 3 Xrotation Yrotation Zrotation
										JOINT LeftForeArm
										{
											OFFSET 8.512804 0.000000 -0.000000
											CHANNELS 3 Xrotation Yrotation Zrotation
											JOINT LeftHand
											{
												OFFSET 18.484802 0.000000 -0.000000
												CHANNELS 3 Xrotation Yrotation Zrotation
												End Site
												{
													OFFSET 0 0 0
												}
											}
										}
									}
								}
							}
						}
						JOINT RightShoulder_virtual
						{
							OFFSET 0.000000 0.000000 0.000000
							CHANNELS 3 Xrotation Yrotation Zrotation
							JOINT RightShoulder
							{
								OFFSET -2.196100 4.412496 0.070690
								CHANNELS 3 Xrotation Yrotation Zrotation
								JOINT RightShoulder_split
								{
									OFFSET -2.196100 4.412496 0.070690
									CHANNELS 3 Xrotation Yrotation Zrotation
									JOINT RightArm
									{
										OFFSET -8.771282 -2.981682 -0.094208
										CHANNELS 3 Xrotation Yrotation Zrotation
										JOINT RightForeArm
										{
											OFFSET -8.494598 0.000000 0.000000
											CHANNELS 3 Xrotation Yrotation Zrotation
											JOINT RightHand
											{
												OFFSET -18.483803 0.000000 0.000001
												CHANNELS 3 Xrotation Yrotation Zrotation
												End Site
												{
													OFFSET 0 0 0
												}
											}
										}
									}
								}
							}
						}
					}
				}
			}
		}
	}
}
MOTION
Frames: 7
Frame Time: 0.03333333
-0.979947 32.924858 0.487934 0.000000 0.000000 0.000000 5.204115 -17.166466 9.371031 -26.302432 -5.827652 -13.425364 17.617290 -6.139984 -9.637182 10.052429 -25.382308 11.417021 -1.211538 -0.439791 3.160787 0.000000 0.000000 0.000000 4.909406 -13.966954 9.444375 13.646765 -12.946330 -12.004813 30.790732 8.789985 -2.328715 -5.054597 -1.387330 9.858022 -42.155801 1.047287 -3.775050 0.000000 0.000000 0.000000 2.980260 -14.709881 7.976813 1.892136 5.427348 0.212938 5.884986 9.455586 2.212154 0.808747 -1.706077 0.793220 0.000000 0.000000 0.000000 4.947991 9.287324 2.233792 -2.157957 -0.402183 -1.948157 -7.228039 -1.149941 -11.979914 0.000000 0.000000 0.000000 4.755254 9.590998 1.949380 0.429495 0.191562 -13.317804 0.758474 2.108989 -1.974826 -19.023106 -24.447907 -69.899193 0.283443 -65.370422 -1.460543 0.000000 0.000000 0.000000 5.101059 9.608799 2.238628 1.028800 11.172012 18.217318 -1.445930 2.891481 -1.577491 -44.900953 56.540811 71.565882 -2.397607 39.220630 0.944301 0.000000 0.000000 0.000000 
-0.883004 32.920055 0.459595 0.000000 0.000000 0.000000 5.155529 -17.152517 9.205974 -26.480620 -6.441640 -13.189084 17.769425 -6.393857 -9.877908 10.251817 -25.550495 11.235438 -1.307074 -0.371437 3.080067 0.000000 0.000000 0.000000 4.935033 -13.866666 9.297222 13.701303 -13.026561 -12.099291 30.835073 9.111918 -2.343946 -5.599290 -1.353381 10.252288 -41.002080 1.193419 -4.037888 0.000000 0.000000 0.000000 3.151131 -15.036730 7.737995 1.898146 5.480388 0.306200 5.858436 9.430931 2.197114 0.879406 -1.722276 0.765183 0.000000 0.000000 0.000000 4.993565 9.264851 2.218642 -2.127522 -0.341378 -1.960408 -7.270606 -1.260595 -11.983916 0.000000 0.000000 0.000000 4.741819 9.557529 1.933325 0.437970 0.156093 -13.308127 0.850643 2.151890 -1.934173 -19.359160 -24.652255 -69.977638 0.392645 -65.465341 -1.376532 0.000000 0.000000 0.000000 5.074729 9.579450 2.243625 1.029707 11.019399 18.188754 -1.568119 2.869732 -1.557379 -45.061258 56.542850 71.637988 -2.363050 39.414484 0.928144 0.000000 0.000000 0.000000 
-0.782527 32.860313 0.444006 0.000000 0.000000 0.000000 4.979397 -17.423614 8.925655 -26.899510 -7.074633 -12.826732 18.434855 -6.679670 -10.159847 10.280643 -25.710248 10.865296 -1.391107 -0.187306 2.938947 0.000000 0.000000 0.000000 5.035100 -14.049828 8.964246 14.146840 -12.913316 -11.756599 30.049772 9.329869 -2.424907 -7.406333 -1.201949 9.699675 -38.654496 1.459972 -4.348973 0.000000 0.000000 0.000000 3.262995 -15.447613 7.408430 1.977327 5.571639 0.467514 5.817951 9.396163 2.178823 0.915202 -1.759376 0.685901 0.000000 0.000000 0.000000 5.019775 9.225566 2.192693 -2.343354 -0.260838 -1.954369 -7.540618 -1.435055 -11.870582 0.000000 0.000000 0.000000 4.724329 9.505748 1.908521 0.442293 0.108713 -13.315413 0.861702 2.218170 -1.887328 -19.828382 -25.129038 -70.096927 0.513752 -65.522592 -1.301102 0.000000 0.000000 0.000000 5.044603 9.537472 2.235648 1.018312 10.865678 18.186857 -1.664564 2.817864 -1.518306 -45.190321 56.415816 71.627811 -2.359136 40.048654 0.943613 0.000000 0.000000 0.000000 
-0.691870 32.756241 0.387058 0.000000 0.000000 0.000000 4.720420 -17.982686 8.584280 -27.330847 -7.639990 -12.385482 19.349224 -6.975682 -10.392906 9.956781 -25.885507 10.212067 -1.454989 0.111044 2.720670 0.000000 0.000000 0.000000 5.153222 -14.590655 8.580668 14.698769 -12.769306 -11.219031 29.010815 9.440093 -2.423527 -9.377507 -0.930429 8.504414 -36.077285 1.785758 -4.647176 0.000000 0.000000 0.000000 3.354129 -15.874237 7.086521 2.084655 5.688789 0.668937 5.767035 9.354041 2.155333 0.928818 -1.816909 0.583811 0.000000 0.000000 0.000000 5.021762 9.175546 2.160744 -2.767103 -0.190058 -1.941903 -8.001397 -1.650300 -11.663492 0.000000 0.000000 0.000000 4.692179 9.444200 1.878310 0.442271 0.076960 -13.347312 0.791378 2.322525 -1.822340 -20.292161 -25.778155 -70.206681 0.602333 -65.571681 -1.265858 0.000000 0.000000 0.000000 5.005877 9.483812 2.216304 0.994181 10.709145 18.186813 -1.705875 2.814165 -1.490054 -45.234973 56.178654 71.496269 -2.385006 41.010631 0.993766 0.000000 0.000000 0.000000 
-0.622762 32.620747 0.331102 0.000000 0.000000 0.000000 4.444912 -18.724883 8.253170 -27.635227 -8.148628 -11.926268 20.282090 -7.251842 -10.528382 9.223887 -26.120805 9.274741 -1.554803 0.502377 2.454467 0.000000 0.000000 0.000000 5.193562 -15.396764 8.231193 15.068693 -12.770059 -10.816171 27.807729 9.719596 -2.264016 -10.566689 -0.410273 7.800600 -34.595793 2.100259 -4.989873 0.000000 0.000000 0.000000 3.400126 -16.225410 6.797271 2.221448 5.836130 0.897608 5.709436 9.304567 2.128881 0.910474 -1.846152 0.544459 0.000000 0.000000 0.000000 4.983674 9.118414 2.132535 -3.323322 -0.164103 -1.927896 -8.588343 -1.881106 -11.409669 0.000000 0.000000 0.000000 4.630877 9.381374 1.851920 0.434694 0.086499 -13.412238 0.676191 2.426994 -1.801197 -20.660465 -26.531120 -70.276001 0.625292 -65.656532 -1.284529 0.000000 0.000000 0.000000 4.949557 9.418800 2.185638 0.954579 10.549573 18.137866 -1.664633 2.854365 -1.491810 -45.163424 55.818994 71.244481 -2.442731 42.206519 1.069830 0.000000 0.000000 0.000000 
-0.576600 32.483929 0.351030 0.000000 0.000000 0.000000 4.189161 -19.425772 7.948184 -27.806832 -8.607953 -11.408530 21.185119 -7.550217 -10.530843 8.261069 -26.474872 8.070026 -1.713050 0.970234 2.184802 0.000000 0.000000 0.000000 5.142236 -16.343096 7.925856 15.221428 -12.910433 -10.635721 26.541541 10.289533 -1.993623 -10.928216 0.396338 8.019250 -34.041123 2.343879 -5.444364 0.000000 0.000000 0.000000 3.414210 -16.519431 6.521161 2.388368 6.007248 1.164944 5.653230 9.252921 2.097859 0.848077 -1.811216 0.570687 0.000000 0.000000 0.000000 4.900647 9.049845 2.113407 -3.947995 -0.191984 -1.915373 -9.243151 -2.108698 -11.153516 0.000000 0.000000 0.000000 4.534494 9.317602 1.829464 0.418955 0.152532 -13.510334 0.530275 2.465106 -1.785713 -20.909487 -27.311772 -70.311313 0.578873 -65.787405 -1.349417 0.000000 0.000000 0.000000 4.878435 9.344320 2.146076 0.894073 10.387981 18.007225 -1.597352 2.888662 -1.495020 -44.987232 55.362150 70.891975 -2.533054 43.527457 1.158452 0.000000 0.000000 0.000000 
-0.546521 32.367268 0.396278 0.000000 0.000000 0.000000 4.040728 -20.058474 7.618400 -27.849388 -8.933690 -10.791902 22.105665 -7.877389 -10.365769 7.212641 -26.930671 6.757776 -1.941568 1.512803 1.928859 0.000000 0.000000 0.000000 4.984826 -17.365170 7.653963 15.485690 -13.132809 -10.538031 25.166438 10.833491 -1.686873 -11.290129 1.260274 8.557290 -33.093715 2.438408 -5.945326 0.000000 0.000000 0.000000 3.429324 -16.786180 6.229800 2.575083 6.198609 1.468391 5.581202 9.198731 2.063351 0.785561 -1.695515 0.545247 0.000000 0.000000 0.000000 4.778791 8.963676 2.105205 -4.569778 -0.272594 -1.898473 -9.919049 -2.342243 -10.936249 0.000000 0.000000 0.000000 4.407763 9.251040 1.809975 0.395069 0.262932 -13.606446 0.385737 2.451721 -1.764168 -21.136444 -28.073645 -70.347629 0.497424 -65.927042 -1.419349 0.000000 0.000000 0.000000 4.796886 9.263074 2.104374 0.814905 10.211718 17.807218 -1.536272 2.899378 -1.502815 -44.786449 54.817521 70.548641 -2.637895 44.858927 1.235688 0.000000 0.000000 0.000000 
